<?xml version="1.0" encoding="utf-8"?>
<!-- Generator: Adobe Illustrator 16.0.0, SVG Export Plug-In . SVG Version: 6.00 Build 0)  -->
<!DOCTYPE svg PUBLIC "-//W3C//DTD SVG 1.1//EN" "http://www.w3.org/Graphics/SVG/1.1/DTD/svg11.dtd">
<svg version="1.1" id="Layer_1" xmlns="http://www.w3.org/2000/svg" xmlns:xlink="http://www.w3.org/1999/xlink" x="0px" y="0px"
	 width="29px" height="24px" viewBox="5 4 29 24" enable-background="new 5 4 29 24" xml:space="preserve">
<g>
	
		<linearGradient id="SVGID_1_" gradientUnits="userSpaceOnUse" x1="259.0264" y1="-347.4512" x2="287.2308" y2="-319.2467" gradientTransform="matrix(1 0 0 -1 -256 -313)">
		<stop  offset="0" style="stop-color:#7243FF"/>
		<stop  offset="0.9983" style="stop-color:#4101FF"/>
	</linearGradient>
	<path fill="url(#SVGID_1_)" d="M21.847,4c-5.178,0-9.601,3.297-11.279,7.901c-3.125,0.822-5.39,2.204-5.39,4.098
		s2.266,3.276,5.39,4.099C12.246,24.703,16.669,28,21.847,28c5.24,0,9.703-3.376,11.335-8.066c-0.527,0.23-1.105,0.359-1.718,0.359
		c-0.052,0-0.102-0.002-0.154-0.005c-1.638,3.597-5.262,6.104-9.463,6.104c-4.114,0-7.677-2.401-9.36-5.877
		c1.75,0.308,3.652,0.466,5.521,0.466c3.88,0,7.911-0.68,10.395-1.975c-0.377-0.386-0.683-0.84-0.896-1.344
		c-1.88,0.925-5.2,1.713-9.499,1.713c-0.181,0-0.358-0.003-0.535-0.005c-2.165-0.034-4.068-0.268-5.645-0.614
		c-0.243-0.879-0.375-1.803-0.375-2.757c0-0.615,0.058-1.219,0.16-1.805c-0.65,0.241-1.225,0.498-1.719,0.767
		c-0.03,0.342-0.047,0.688-0.047,1.038c0,0.782,0.077,1.545,0.22,2.283c-1.021-0.331-1.825-0.712-2.381-1.097
		c-0.587-0.407-0.902-0.82-0.902-1.187c0-1.375,4.373-3.374,11.223-3.374c0.379,0,0.75,0.007,1.115,0.019
		c3.758,0.123,6.668,0.85,8.382,1.692c0.214-0.504,0.521-0.957,0.896-1.343c-1.422-0.742-3.352-1.281-5.467-1.606
		c-1.242-0.191-2.544-0.31-3.851-0.351c-0.359-0.012-0.719-0.018-1.077-0.018c-1.868,0-3.771,0.158-5.521,0.467
		c1.683-3.477,5.246-5.879,9.36-5.879c4.201,0,7.826,2.507,9.463,6.105c0.053-0.003,0.103-0.006,0.153-0.006
		c0.612,0,1.191,0.13,1.719,0.362C31.55,7.376,27.087,4,21.847,4z"/>
	<path fill="#DD1BB9" d="M31.464,13.641c-1.301,0-2.358,1.058-2.358,2.358c0,1.302,1.057,2.359,2.358,2.359
		c1.301,0,2.359-1.058,2.359-2.359C33.823,14.699,32.765,13.641,31.464,13.641z"/>
</g>
</svg>
