<?xml version="1.0" encoding="utf-8"?>
<!-- Generator: Adobe Illustrator 16.0.0, SVG Export Plug-In . SVG Version: 6.00 Build 0)  -->
<!DOCTYPE svg PUBLIC "-//W3C//DTD SVG 1.1//EN" "http://www.w3.org/Graphics/SVG/1.1/DTD/svg11.dtd">
<svg version="1.1" id="Layer_1" xmlns="http://www.w3.org/2000/svg" xmlns:xlink="http://www.w3.org/1999/xlink" x="0px" y="0px"
	 width="300px" height="300px" viewBox="0 0 300 300" enable-background="new 0 0 300 300" xml:space="preserve">
<g>
	<linearGradient id="SVGID_1_" gradientUnits="userSpaceOnUse" x1="-18.1699" y1="338.3477" x2="269.7524" y2="50.4253">
		<stop  offset="0" style="stop-color:#7243FF"/>
		<stop  offset="0.9983" style="stop-color:#4101FF"/>
	</linearGradient>
	<path fill="url(#SVGID_1_)" d="M173.954,27.5c-52.86,0-98.01,33.661-115.144,80.66c-31.899,8.396-55.024,22.505-55.024,41.833
		c0,19.335,23.125,33.444,55.024,41.839C75.944,238.84,121.094,272.5,173.954,272.5c53.489,0,99.052-34.461,115.711-82.349
		c-5.384,2.362-11.289,3.678-17.539,3.678c-0.524,0-1.034-0.022-1.57-0.045c-16.719,36.719-53.715,62.305-96.602,62.305
		c-41.997,0-78.371-24.518-95.55-60.002c17.858,3.147,37.287,4.763,56.36,4.763c39.609,0,80.745-6.945,106.107-20.157
		c-3.844-3.939-6.969-8.568-9.153-13.72c-19.185,9.435-53.085,17.48-96.954,17.48c-1.844,0-3.66-0.029-5.47-0.053
		c-22.104-0.344-41.529-2.729-57.62-6.272c-2.471-8.964-3.824-18.393-3.824-28.135c0-6.284,0.587-12.438,1.642-18.423
		c-6.64,2.456-12.51,5.076-17.552,7.82c-0.304,3.496-0.486,7.032-0.486,10.603c0,7.978,0.789,15.761,2.247,23.305
		c-10.419-3.387-18.625-7.268-24.308-11.2c-5.992-4.149-9.2-8.359-9.2-12.105c0-14.042,44.634-34.446,114.571-34.446
		c3.877,0,7.668,0.071,11.388,0.194c38.358,1.252,68.072,8.666,85.566,17.275c2.185-5.145,5.31-9.772,9.153-13.708
		c-14.521-7.574-34.215-13.078-55.808-16.401c-12.681-1.948-25.974-3.159-39.309-3.578c-3.672-0.124-7.336-0.183-10.991-0.183
		c-19.073,0-38.502,1.619-56.36,4.77C95.583,68.424,131.957,43.9,173.954,43.9c42.887,0,79.898,25.593,96.602,62.323
		c0.536-0.034,1.046-0.064,1.57-0.064c6.25,0,12.155,1.323,17.539,3.69C273.006,61.964,227.443,27.5,173.954,27.5z"/>
	<path fill="#DD1BB9" d="M272.126,125.913c-13.279,0-24.076,10.804-24.076,24.08c0,13.286,10.797,24.083,24.076,24.083
		s24.088-10.797,24.088-24.083C296.214,136.717,285.405,125.913,272.126,125.913z"/>
</g>
</svg>
