<svg version="1" xmlns="http://www.w3.org/2000/svg" width="933.333" height="933.333" viewBox="0 0 700.000000 700.000000"><path d="M389.8 64.5c-.2.1-4.1.5-8.8.9-4.7.3-10.1.8-12 1.1-43.2 6.5-76.3 18.1-110.3 38.7-10.3 6.2-25.3 16.5-29.7 20.4-1.4 1.2-5.9 5.1-10 8.5-33 27.9-62.4 69-78 108.9-1.9 4.7-3.4 8.6-3.5 8.8-.1.1-7.5 2.5-16.5 5.3-71.7 22.1-109.6 52.5-111.7 89.4-1.1 18.4 5.2 33.1 20.7 48.6 21.2 21.2 54.1 37.7 102.4 51.2 4.7 1.3 4.9 1.5 7.3 7.8 7.7 20.5 24.8 50.9 39.2 69.4 34.9 44.9 82.2 79 134.1 96.7 8.6 3 27.3 8.3 32.6 9.2 10.2 2 20.7 3.7 25 4.1 2.7.3 6.5.8 8.4 1.1 1.9.4 12.1.7 22.5.9 32.8.3 56-2.8 85.3-11.6C563 601.2 625.6 548.8 661.1 478c6.3-12.6 15.3-34 14.3-34-.3 0-2.1.7-4.1 1.5-8.7 3.6-24.9 6.7-35.8 6.7h-4.1l-4.9 9.6c-12.2 24-26.4 43.4-46.4 63.2-11.9 11.9-14.9 14.5-24.1 21.5-30.9 23.7-65.9 39.2-106 47-20.8 4.1-58.4 5.1-74.5 2.1-1.1-.2-4.5-.7-7.5-1.1-5.8-.7-21.3-4.2-31.5-7-12-3.2-29.3-10.1-42.2-16.6-45.9-23.5-82.6-59.5-107.2-105.3l-4.3-7.9 4.3.6c2.4.4 8.9 1.3 14.4 2.1 5.5.9 12.3 1.8 15 2.1 2.8.3 6.8.8 9 1.1 2.2.4 5.8.8 8.1.9 2.3.2 6.8.6 10 .9 22.3 2.2 41.3 3 70.9 3 22.8 0 51.5-.9 59-1.9 1.7-.2 6.8-.7 11.5-1 4.7-.4 10.1-.8 12-1.1 9.1-1 13.1-1.5 20.5-2.5 4.4-.5 8.9-1.2 10-1.3 23.5-3.8 35.3-6.1 52-10.1 15.8-3.8 34.3-9 41-11.5 1.1-.5 4.7-1.8 8-3 10.4-3.8 15.7-6 24.7-10.2l8.7-4.1-5.8-7.1c-5.6-6.9-14.1-20.4-14.1-22.5 0-.5-.4-1.2-.9-1.5-.7-.5-11.6 3.7-19.6 7.5-7.7 3.6-51 16.1-63.5 18.3-1.4.2-3.6.7-5 1-1.4.3-3.8.8-5.4 1.1-1.6.2-5.2.9-8 1.4-2.8.6-6.7 1.3-8.6 1.5-1.9.3-4.6.8-6 1-1.4.3-4.7.7-7.5 1.1-2.7.4-6.6.9-8.5 1.1-4.6.6-9.1 1.1-17 1.9-3.6.3-8.1.8-10 1-3.7.5-16.5 1.3-31.5 2.1-13 .6-61.4.6-72 0-4.9-.3-12.6-.8-17-1.1-7.3-.4-14.1-1-23.5-2-1.9-.2-6.4-.7-10-1-6.6-.7-30.4-4-35-5-1.4-.3-7.8-1.5-14.2-2.7l-11.6-2.1-2.1-8.6c-1.8-7.7-2.8-13.2-4.5-24.1-2.4-15.3-2.6-53.3-.2-64.5.2-1.1.7-4.1 1-6.7l.6-4.7-3.7 1.3c-6.5 2.3-16.4 6.6-27 11.8l-10.1 4.9-.4 4.7c-.6 5.7-.1 45.9.5 48.7.2 1.1.7 4.7 1.1 8 .4 3.3 1.2 8.4 1.8 11.3.6 2.8.9 5.5.6 5.8-.8.8-22-7.2-33.8-12.8-21.6-10.3-38.5-23.9-42.4-34.2-5.3-14 7.3-29.3 36.8-44.7 26.3-13.7 75.5-28.2 113.1-33.5 2.8-.3 5.9-.8 7-1 2.9-.6 24.3-3.3 29.5-3.8 28.2-2.8 49.2-3.8 78.4-3.8 18.6-.1 44.3.7 54.6 1.6 1.9.2 8 .7 13.4 1.1 5.5.4 10.8.8 11.7 1 1 .2 4.9.7 8.6 1 3.7.4 7.5.9 8.3 1 .8.1 4 .6 7 1 41.1 5.2 88.6 17.7 117.8 31.1 2.9 1.3 5.4 2.4 5.6 2.4.2 0 2-3.3 4.1-7.3 3.7-7.2 9.5-15.6 14.6-21.1l2.8-3-2.7-1.6c-13.1-7.9-64.3-25.2-87.2-29.4-1.4-.3-7-1.4-12.5-2.6-5.5-1.1-11.5-2.3-13.4-2.5-1.8-.2-4.1-.7-5-.9-.9-.3-3.8-.8-6.6-1.1-2.7-.4-5.9-.8-7-1-5.2-.8-26.6-3.6-31-3.9-16-1.4-21.3-1.9-24-2.2-23.1-2.3-97.9-2.3-117 .1-1.6.2-6.6.6-11 .9-4.4.4-9.8.8-12 1.1-2.2.2-6.2.7-9 1-2.7.3-6.3.8-8 1-1.6.3-4.8.7-7 1-5.2.7-9.6 1.4-17 2.6-3.3.5-6.5.9-7.1.9-1.1 0 2.2-7.4 7.1-15.5 1.3-2.2 3.1-5.4 4.1-7 4.3-7.6 18.1-25.9 25.9-34.4 35.1-38.1 73.4-61.6 121.5-74.5 8.2-2.2 14.7-3.5 29.5-6.1 13.8-2.4 50.4-2.3 66.5.1 4 .6 17 3 21.5 3.9 12.1 2.5 35.2 10.4 49.1 16.9 27.3 12.7 48.7 27.8 70.9 50.1 20.5 20.5 33.7 38.4 45.7 62.1l5.2 10.2 6.6.1c6.9.1 10.9.6 20.7 2.7 2.4.5 11.3 3.3 15.5 4.9 1.4.6.9-1.4-2.3-9.7-22.8-58.6-65.2-108.5-120.4-141.5-34.9-21-74.2-34-117-38.9-5.8-.6-44.1-1.4-44.7-.9z"/><path d="M627 294.3c-.3.3-2.1.7-4 1-12.1 1.7-28.3 12.9-35.6 24.7-4.8 7.8-8.1 19.3-8.3 28.9-.3 16.1 5 29.1 16.4 40.6 22 21.9 56.8 22 79 .1 10.6-10.4 16.1-23.7 16.3-38.8.1-15.5-5-28.8-15.2-39.3-11.3-11.5-22.1-16.4-38.1-17.2-5.5-.3-10.2-.3-10.5 0z"/></svg>